<svg xmlns="http://www.w3.org/2000/svg" width="900" height="560" viewBox="0 0 900 560" role="img" aria-label="Онлайн обучение">
  <rect width="900" height="560" rx="36" fill="#fff8ea"/>
  <circle cx="724" cy="92" r="82" fill="#d98245" opacity=".18"/>
  <circle cx="138" cy="472" r="112" fill="#416b55" opacity=".14"/>
  <rect x="122" y="102" width="560" height="340" rx="28" fill="#ffffff" stroke="#262626" stroke-opacity=".12"/>
  <rect x="154" y="138" width="496" height="62" rx="18" fill="#416b55" opacity=".14"/>
  <rect x="154" y="226" width="210" height="30" rx="15" fill="#d98245" opacity=".45"/>
  <rect x="154" y="276" width="360" height="18" rx="9" fill="#262626" opacity=".12"/>
  <rect x="154" y="312" width="430" height="18" rx="9" fill="#262626" opacity=".10"/>
  <rect x="154" y="348" width="278" height="18" rx="9" fill="#262626" opacity=".10"/>
  <rect x="604" y="270" width="150" height="150" rx="28" fill="#4c7f9f" opacity=".20"/>
  <path d="M642 344h74M679 307v74" stroke="#4c7f9f" stroke-width="18" stroke-linecap="round"/>
  <path d="M190 168h186" stroke="#416b55" stroke-width="16" stroke-linecap="round"/>
  <path d="M705 182c34 0 61 27 61 61" stroke="#d98245" stroke-width="18" stroke-linecap="round" fill="none"/>
</svg>
