<svg xmlns="http://www.w3.org/2000/svg" width="900" height="560" viewBox="0 0 900 560" role="img" aria-label="Заявка на курс">
  <rect width="900" height="560" rx="36" fill="#f4ead7"/>
  <path d="M96 122h708v316H96z" fill="#fffdf7" stroke="#262626" stroke-opacity=".13" stroke-width="2"/>
  <path d="M96 190h708" stroke="#262626" stroke-opacity=".12" stroke-width="2"/>
  <circle cx="140" cy="156" r="13" fill="#b95c54" opacity=".85"/>
  <circle cx="180" cy="156" r="13" fill="#d98245" opacity=".85"/>
  <circle cx="220" cy="156" r="13" fill="#416b55" opacity=".85"/>
  <rect x="148" y="234" width="296" height="40" rx="20" fill="#416b55" opacity=".18"/>
  <rect x="148" y="306" width="454" height="24" rx="12" fill="#262626" opacity=".10"/>
  <rect x="148" y="354" width="354" height="24" rx="12" fill="#262626" opacity=".10"/>
  <rect x="626" y="246" width="132" height="132" rx="32" fill="#d98245" opacity=".22"/>
  <path d="m657 310 28 28 48-60" stroke="#d98245" stroke-width="18" stroke-linecap="round" stroke-linejoin="round" fill="none"/>
  <path d="M292 418c48-28 93-26 138 0 45 26 89 29 132 2" stroke="#4c7f9f" stroke-width="14" stroke-linecap="round" fill="none" opacity=".45"/>
</svg>
