<svg xmlns="http://www.w3.org/2000/svg" width="900" height="560" viewBox="0 0 900 560" role="img" aria-label="Панель администратора">
  <rect width="900" height="560" rx="36" fill="#fffdf7"/>
  <rect x="110" y="88" width="680" height="384" rx="32" fill="#ffffff" stroke="#262626" stroke-opacity=".12"/>
  <rect x="144" y="126" width="180" height="52" rx="18" fill="#416b55" opacity=".18"/>
  <rect x="144" y="220" width="612" height="56" rx="18" fill="#f4ead7"/>
  <rect x="144" y="300" width="612" height="56" rx="18" fill="#f4ead7"/>
  <rect x="144" y="380" width="612" height="56" rx="18" fill="#f4ead7"/>
  <rect x="596" y="236" width="120" height="24" rx="12" fill="#d98245" opacity=".55"/>
  <rect x="596" y="316" width="120" height="24" rx="12" fill="#4c7f9f" opacity=".40"/>
  <rect x="596" y="396" width="120" height="24" rx="12" fill="#416b55" opacity=".45"/>
  <rect x="178" y="238" width="182" height="20" rx="10" fill="#262626" opacity=".12"/>
  <rect x="178" y="318" width="232" height="20" rx="10" fill="#262626" opacity=".12"/>
  <rect x="178" y="398" width="204" height="20" rx="10" fill="#262626" opacity=".12"/>
  <path d="M678 128l22 22 46-50" stroke="#416b55" stroke-width="16" stroke-linecap="round" stroke-linejoin="round" fill="none"/>
</svg>
